<svg width="400" height="120" viewBox="0 0 400 120" fill="none" xmlns="http://www.w3.org/2000/svg">
<rect width="400" height="120" rx="20" fill="#1D5AD4"/>
<path d="M185.768 71.4688V75.6484H153.229V71.4688H166.901V65.0625H155.924V61.1562H160.69V51H155.768V47.0156H183.034V51H178.034V61.1562H182.877V65.0625H171.862V71.4688H185.768ZM165.69 61.1562H173.112V51H165.69V61.1562ZM216.765 44.0859V69.6328H211.765V44.0859H216.765ZM217.702 74.9844V78.9688H192.937V67.0547H197.976V74.9844H217.702ZM197.273 46.3516C202.741 46.3516 206.999 50.1016 206.999 55.2969C206.999 60.6094 202.741 64.3203 197.273 64.3203C191.804 64.3203 187.546 60.6094 187.546 55.2969C187.546 50.1016 191.804 46.3516 197.273 46.3516ZM197.273 50.6875C194.499 50.6484 192.39 52.4062 192.429 55.2969C192.39 58.2656 194.499 59.9844 197.273 59.9844C199.968 59.9844 202.077 58.2656 202.077 55.2969C202.077 52.4062 199.968 50.6484 197.273 50.6875ZM249.754 62.4062V66.3516H224.598V46.6641H249.48V50.6875H229.676V54.4375H248.66V58.3438H229.676V62.4062H249.754ZM253.309 71.3906V75.4531H220.77V71.3906H253.309ZM284.501 44.0469V61.9375H279.54V59.2031H271.415V55.4141H279.54V52.2891H271.805C269.598 57.6406 264.52 61.0586 256.649 62.7578L254.97 58.6953C263.114 57.0742 266.884 53.7148 267.548 49.4375H256.962V45.4141H273.055C273.055 46.4883 272.977 47.5234 272.821 48.5H279.54V44.0469H284.501ZM284.501 63.2266V72.9531H265.907V75.2969H285.282V79.2422H260.907V69.2812H279.501V67.1328H260.868V63.2266H284.501ZM319.052 44.0469V79.5938H314.326V44.0469H319.052ZM311.787 44.6328V77.9531H307.099V60.2578H302.412V56.2344H307.099V44.6328H311.787ZM299.56 53.5781C299.56 59.4766 301.396 65.4531 306.591 68.4219L303.662 72.0938C300.498 70.2188 298.408 67.0352 297.216 63.2266C295.986 67.3672 293.837 70.8828 290.576 72.875L287.568 69.2031C292.802 66 294.755 59.5938 294.755 53.5781V51.6641H288.935V47.6797H304.951V51.6641H299.56V53.5781Z" fill="white"/>
<mask id="mask0_252_756" style="mask-type:alpha" maskUnits="userSpaceOnUse" x="76" y="36" width="48" height="48">
<rect x="76" y="36" width="48" height="48" fill="#D9D9D9"/>
</mask>
<g mask="url(#mask0_252_756)">
<path d="M98.2 74H101.7V71.5C103.367 71.2 104.8 70.55 106 69.55C107.2 68.55 107.8 67.0667 107.8 65.1C107.8 63.7 107.4 62.4167 106.6 61.25C105.8 60.0833 104.2 59.0667 101.8 58.2C99.8 57.5333 98.4167 56.95 97.65 56.45C96.8833 55.95 96.5 55.2667 96.5 54.4C96.5 53.5333 96.8083 52.85 97.425 52.35C98.0417 51.85 98.9333 51.6 100.1 51.6C101.167 51.6 102 51.8583 102.6 52.375C103.2 52.8917 103.633 53.5333 103.9 54.3L107.1 53C106.733 51.8333 106.058 50.8167 105.075 49.95C104.092 49.0833 103 48.6 101.8 48.5V46H98.3V48.5C96.6333 48.8667 95.3333 49.6 94.4 50.7C93.4667 51.8 93 53.0333 93 54.4C93 55.9667 93.4583 57.2333 94.375 58.2C95.2917 59.1667 96.7333 60 98.7 60.7C100.8 61.4667 102.258 62.15 103.075 62.75C103.892 63.35 104.3 64.1333 104.3 65.1C104.3 66.2 103.908 67.0083 103.125 67.525C102.342 68.0417 101.4 68.3 100.3 68.3C99.2 68.3 98.225 67.9583 97.375 67.275C96.525 66.5917 95.9 65.5667 95.5 64.2L92.2 65.5C92.6667 67.1 93.3917 68.3917 94.375 69.375C95.3583 70.3583 96.6333 71.0333 98.2 71.4V74ZM100 80C97.2333 80 94.6333 79.475 92.2 78.425C89.7667 77.375 87.65 75.95 85.85 74.15C84.05 72.35 82.625 70.2333 81.575 67.8C80.525 65.3667 80 62.7667 80 60C80 57.2333 80.525 54.6333 81.575 52.2C82.625 49.7667 84.05 47.65 85.85 45.85C87.65 44.05 89.7667 42.625 92.2 41.575C94.6333 40.525 97.2333 40 100 40C102.767 40 105.367 40.525 107.8 41.575C110.233 42.625 112.35 44.05 114.15 45.85C115.95 47.65 117.375 49.7667 118.425 52.2C119.475 54.6333 120 57.2333 120 60C120 62.7667 119.475 65.3667 118.425 67.8C117.375 70.2333 115.95 72.35 114.15 74.15C112.35 75.95 110.233 77.375 107.8 78.425C105.367 79.475 102.767 80 100 80Z" fill="white"/>
</g>
</svg>
