<svg width="400" height="120" viewBox="0 0 400 120" fill="none" xmlns="http://www.w3.org/2000/svg">
<rect x="1" y="1" width="398" height="118" rx="19" fill="white" stroke="#1D5AD4" stroke-width="2"/>
<path d="M185.377 72.25V74.8672H153.58V72.25H167.838V64.2422H156.471V61.7812H161.901V50.375H156.393V47.8359H182.33V50.375H176.823V61.7812H182.252V64.2422H170.846V72.25H185.377ZM164.948 61.7812H173.815V50.375H164.948V61.7812ZM216.023 44.4766V69.8672H212.976V44.4766H216.023ZM217.116 75.8438V78.4219H193.601V67.2891H196.648V75.8438H217.116ZM197.273 46.8984C202.468 46.8984 206.374 50.4141 206.374 55.4141C206.374 60.4922 202.468 63.9688 197.273 63.9688C192.077 63.9688 188.171 60.4922 188.171 55.4141C188.171 50.4141 192.077 46.8984 197.273 46.8984ZM197.273 49.5938C193.757 49.5938 191.14 52.0156 191.179 55.4141C191.14 58.8906 193.757 61.2734 197.273 61.2734C200.71 61.2734 203.366 58.8906 203.366 55.4141C203.366 52.0156 200.71 49.5938 197.273 49.5938ZM249.246 63.2266V65.7266H225.223V47.4453H248.855V50.0234H228.348V55.1797H248.113V57.6406H228.348V63.2266H249.246ZM252.918 72.0938V74.6328H221.121V72.0938H252.918ZM283.68 44.4375V62.2109H280.595V58.5781H271.337V56.1562H280.595V51.9766H271.845C269.657 57.4648 264.266 61.1562 256.571 62.9922L255.477 60.4531C263.993 58.4805 268.954 54.3203 269.54 48.7344H257.235V46.1953H272.899C272.899 47.3477 272.782 48.4609 272.587 49.5156H280.595V44.4375H283.68ZM283.68 63.7734V72.25H264.305V76.3125H284.852V78.8516H261.259V69.9062H280.595V66.2734H261.18V63.7734H283.68ZM318.349 44.4375V79.1641H315.42V44.4375H318.349ZM311.318 45.2969V77.3672H308.427V59.4766H302.568V56.9766H308.427V45.2969H311.318ZM298.857 54.3594C298.857 60.375 301.552 66.3516 306.357 69.125L304.482 71.3906C301.064 69.3398 298.642 65.5898 297.451 61.1562C296.181 65.9414 293.662 70.0234 290.185 72.2109L288.232 69.9062C293.076 67.0156 295.888 60.6875 295.888 54.3594V51.0781H289.209V48.5391H305.224V51.0781H298.857V54.3594Z" fill="#1D5AD4"/>
<mask id="mask0_252_869" style="mask-type:alpha" maskUnits="userSpaceOnUse" x="76" y="36" width="48" height="48">
<rect x="76" y="36" width="48" height="48" fill="#D9D9D9"/>
</mask>
<g mask="url(#mask0_252_869)">
<path d="M98.2 74H101.7V71.5C103.367 71.2 104.8 70.55 106 69.55C107.2 68.55 107.8 67.0667 107.8 65.1C107.8 63.7 107.4 62.4167 106.6 61.25C105.8 60.0833 104.2 59.0667 101.8 58.2C99.8 57.5333 98.4167 56.95 97.65 56.45C96.8833 55.95 96.5 55.2667 96.5 54.4C96.5 53.5333 96.8083 52.85 97.425 52.35C98.0417 51.85 98.9333 51.6 100.1 51.6C101.167 51.6 102 51.8583 102.6 52.375C103.2 52.8917 103.633 53.5333 103.9 54.3L107.1 53C106.733 51.8333 106.058 50.8167 105.075 49.95C104.092 49.0833 103 48.6 101.8 48.5V46H98.3V48.5C96.6333 48.8667 95.3333 49.6 94.4 50.7C93.4667 51.8 93 53.0333 93 54.4C93 55.9667 93.4583 57.2333 94.375 58.2C95.2917 59.1667 96.7333 60 98.7 60.7C100.8 61.4667 102.258 62.15 103.075 62.75C103.892 63.35 104.3 64.1333 104.3 65.1C104.3 66.2 103.908 67.0083 103.125 67.525C102.342 68.0417 101.4 68.3 100.3 68.3C99.2 68.3 98.225 67.9583 97.375 67.275C96.525 66.5917 95.9 65.5667 95.5 64.2L92.2 65.5C92.6667 67.1 93.3917 68.3917 94.375 69.375C95.3583 70.3583 96.6333 71.0333 98.2 71.4V74ZM100 80C97.2333 80 94.6333 79.475 92.2 78.425C89.7667 77.375 87.65 75.95 85.85 74.15C84.05 72.35 82.625 70.2333 81.575 67.8C80.525 65.3667 80 62.7667 80 60C80 57.2333 80.525 54.6333 81.575 52.2C82.625 49.7667 84.05 47.65 85.85 45.85C87.65 44.05 89.7667 42.625 92.2 41.575C94.6333 40.525 97.2333 40 100 40C102.767 40 105.367 40.525 107.8 41.575C110.233 42.625 112.35 44.05 114.15 45.85C115.95 47.65 117.375 49.7667 118.425 52.2C119.475 54.6333 120 57.2333 120 60C120 62.7667 119.475 65.3667 118.425 67.8C117.375 70.2333 115.95 72.35 114.15 74.15C112.35 75.95 110.233 77.375 107.8 78.425C105.367 79.475 102.767 80 100 80ZM100 76C104.467 76 108.25 74.45 111.35 71.35C114.45 68.25 116 64.4667 116 60C116 55.5333 114.45 51.75 111.35 48.65C108.25 45.55 104.467 44 100 44C95.5333 44 91.75 45.55 88.65 48.65C85.55 51.75 84 55.5333 84 60C84 64.4667 85.55 68.25 88.65 71.35C91.75 74.45 95.5333 76 100 76Z" fill="#1D5AD4"/>
</g>
</svg>
